# ProBuilder 5.0.7
# https://unity3d.com/unity/features/worldbuilding/probuilder
# 12/10/2023 4:40:02 PM

mtllib ./HouseColliderMesh.mtl
o HouseColliderMesh

g HouseShape
v 1.190041 0.1832055 0.5154982
v -1.190769 0.1832063 0.5137284
v 1.189932 1.004153 0.5156158
v -1.19083 1.004153 0.5138127
v -1.189666 0.1832083 -1.023451
v 1.191096 0.1832084 -1.021648
v -1.189775 1.004156 -1.023333
v 1.190999 1.004155 -1.02152
v -1.190217 0.1832073 -0.2548611
v -1.190247 1.816795 -0.2546806
v 1.190569 0.183207 -0.2530747
v 1.190527 1.816795 -0.2528674
v 0.3793449 0.9648386 -0.1705599
v -0.3716211 0.9648377 -0.1710426
v 0.004083944 1.499858 -0.1613985
v -0.3722592 0.9841434 0.8293186
v 0.003422872 1.482404 0.838407
v 0.3786381 0.9841429 0.8299035
v 0.3792283 0.2033391 -0.1837695
v -0.3717376 0.2033381 -0.1842522
v 0.3784756 0.1858857 0.8161182
v -0.3724217 0.1858861 0.8155332
v -0.371827 0.8818538 -0.1723847
v 0.3791389 0.8818548 -0.1719019
v 0.3783011 0.943717 0.8294255
v -0.3725962 0.9437176 0.8288406
v -0.3725021 0.983591 1.022401
v 0.3783951 0.9835906 1.022985
v 0.3780581 0.9431648 1.022507
v -0.3728393 0.9431652 1.021922

vt 1.190424 -0.8167208
vt -1.190387 -0.81672
vt 1.190315 0.004226549
vt -1.190448 0.004226365
vt 1.19055 0.004008826
vt 0.5145818 -0.8167383
vt -0.2540079 -0.8167373
vt -0.2538274 0.8168501
vt 0.5146661 0.004208054
vt -1.022598 -0.8167363
vt -1.02248 0.004210977
vt 1.022465 -0.8168773
vt 0.2538921 -0.8168787
vt 0.2536848 0.8167089
vt 1.022337 0.004069672
vt -0.5146809 -0.8168802
vt -0.5147986 0.00406705
vt -1.190301 0.514764
vt 1.190462 0.5146644
vt 1.190429 -0.2538718
vt -1.190346 -0.2537621
vt 1.190507 -1.022482
vt -1.190268 -1.022372
vt 1.190365 -1.022498
vt -1.190398 -1.022598
vt -1.190399 -0.2540079
vt -0.1848654 -0.8603147
vt 0.5661007 -0.8603157
vt 0.1903897 -0.3252156
vt -0.972952 -1.036817
vt 0.02658975 -0.9918993
vt -0.9825852 -0.3830355
vt 0.01704341 -0.3682224
vt -0.5660995 -0.8234735
vt 0.1847981 -0.8234741
vt -0.1904104 -0.3251356
vt -0.02203679 -0.7606027
vt 0.9775586 -0.8066095
vt -0.0117287 -0.136917
vt 0.9878514 -0.1535231
vt 0.1847212 -0.9711189
vt -0.5662448 -0.9710643
vt 0.1846839 0.02892148
vt -0.5662136 0.0288738
vt -0.04563949 -0.0369284
vt 0.4854143 -0.04338892
vt 0.4845493 -0.1265348
vt -0.04650456 -0.1200743
vt 0.4845414 -0.1257547
vt 0.4761111 -0.8045678
vt -0.05490349 -0.7980173
vt -0.04647316 -0.1192042
vt -0.8296263 -0.01600875
vt 0.1708373 -0.03531319
vt 0.1721791 -0.118297
vt -0.8291485 -0.05643522
vt 0.172165 -0.117805
vt 0.1840327 -0.7963204
vt -0.8158553 -0.813774
vt -0.8291628 -0.05594283
vt -0.16932 -0.2133981
vt 0.8302066 -0.2062267
vt 0.8293222 -0.2438722
vt -0.1714966 -0.2906669
vt 0.8281733 -0.14758
vt 0.8168588 -0.770884
vt -0.18491 -0.7597756
vt -0.1748269 -0.2017077
vt -0.5661826 -0.8218967
vt 0.1847149 -0.821897
vt 0.1843775 -0.8623256
vt -0.56652 -0.8623251
vt 0.3787309 1.136206
vt 0.3790654 0.7874642
vt -0.3716866 0.7870976
vt -0.3720212 1.135839
vt -0.01439738 -0.8135567
vt -0.01462531 -0.853986
vt -0.2074554 -0.8107395
vt -0.2076833 -0.8511686
vt 0.5660882 0.01679277
vt -0.1848 0.01684058
vt 0.5661931 0.2098712
vt -0.184695 0.2099189
vt 0.1844628 0.01647723
vt -0.5664254 0.01642954
vt 0.1843579 0.2095556
vt -0.5665303 0.2095079
vt 0.01504141 -0.860249
vt 0.01481348 -0.8198199
vt 0.2080993 -0.8574318
vt 0.2078715 -0.8170028

vn -0.0007433525 -0.0001432751 0.9999997
vn 0.0007573874 0.0001435674 -0.9999997
vn -0.9999997 -4.657574E-05 -0.0007778999
vn 0.9999998 0.0001185293 0.0006866487
vn -0.0005503116 0.6870905 0.7265717
vn 0.000553303 0.6871715 -0.726495
vn -3.635573E-08 -1 -1.589833E-06
vn 0.0006426813 0.01757153 -0.9998454
vn -0.8182217 0.5747856 -0.01161457
vn -0.8083693 0.5883377 -0.0008174474
vn -0.7985169 0.6018897 0.009979679
vn -0.0007788248 -0.01765007 0.9998439
vn 0.7986897 0.6016418 -0.0110447
vn 0.8087116 0.587859 -0.0002406295
vn 0.8187336 0.5740762 0.01056344
vn 1.24884E-05 -0.9998477 -0.01745273
vn 0.0006426983 0.01616881 -0.999869
vn 0.0006427022 0.01748785 -0.9998469
vn 0.9999804 -0.005422751 0.001053569
vn 0.9999966 -0.00249345 0.0007544846
vn 0.9999642 -0.008352052 0.001352654
vn -0.9999967 0.002493062 -0.0006860078
vn -0.9999804 0.005422535 -0.0009851458
vn -0.9999643 0.008352009 -0.001284284
vn -0.0007787284 -0.01182196 0.9999298
vn -1.593535E-06 0.9999959 0.002861027
vn 1.434289E-06 -0.9999959 -0.002860106

usemtl ProBuilderDefault
f 13/27/8 14/28/8 15/29/8
f 16/34/12 18/35/12 17/36/12
f 4/4/1 2/2/1 1/1/1
f 1/1/1 3/3/1 4/4/1
f 8/4/2 6/2/2 5/1/2
f 5/1/2 7/5/2 8/4/2
f 9/7/3 2/6/3 4/9/3
f 4/9/3 10/8/3 9/7/3
f 5/10/3 9/7/3 10/8/3
f 10/8/3 7/11/3 5/10/3
f 11/13/4 6/12/4 8/15/4
f 8/15/4 12/14/4 11/13/4
f 1/16/4 11/13/4 12/14/4
f 12/14/4 3/17/4 1/16/4
f 3/18/5 12/21/5 10/20/5
f 10/20/5 4/19/5 3/18/5
f 12/21/6 8/23/6 7/22/6
f 7/22/6 10/20/6 12/21/6
f 5/25/7 6/24/7 11/20/7
f 11/20/7 9/26/7 5/25/7
f 9/26/7 11/20/7 1/19/7
f 1/19/7 2/18/7 9/26/7
f 15/32/10 14/30/9 16/31/10
f 16/31/10 17/33/11 15/32/10
f 17/39/14 18/37/13 13/38/14
f 13/38/14 15/40/15 17/39/14
f 22/44/16 20/42/16 19/41/16
f 19/41/16 21/43/16 22/44/16
f 24/48/17 23/47/17 14/46/17
f 14/46/17 13/45/17 24/48/17
f 19/51/18 20/50/18 23/49/18
f 23/49/18 24/52/18 19/51/18
f 25/56/21 24/55/19 13/54/20
f 13/54/20 18/53/19 25/56/21
f 21/59/4 19/58/4 24/57/4
f 24/57/4 25/60/4 21/59/4
f 14/61/22 23/64/23 26/63/24
f 26/63/24 16/62/23 14/61/22
f 23/68/3 20/67/3 22/66/3
f 22/66/3 26/65/3 23/68/3
f 30/72/25 29/71/25 28/70/25
f 28/70/25 27/69/25 30/72/25
f 22/75/12 21/74/12 25/73/12
f 25/73/12 26/76/12 22/75/12
f 29/80/21 25/78/21 18/77/21
f 18/77/21 28/79/21 29/80/21
f 28/84/26 18/82/26 16/81/26
f 16/81/26 27/83/26 28/84/26
f 30/88/27 26/86/27 25/85/27
f 25/85/27 29/87/27 30/88/27
f 27/92/24 16/90/24 26/89/24
f 26/89/24 30/91/24 27/92/24

